<?xml version="1.0" encoding="UTF-8" standalone="no"?>
<svg width="10px" height="10px" viewBox="0 0 10 10" version="1.1" xmlns="http://www.w3.org/2000/svg" xmlns:xlink="http://www.w3.org/1999/xlink">
    <!-- Generator: Sketch 39 (31667) - http://www.bohemiancoding.com/sketch -->
    <title>Group 4</title>
    <desc>Created with Sketch.</desc>
    <defs></defs>
    <g id="Page-1" stroke="none" stroke-width="1" fill="none" fill-rule="evenodd">
        <g id="Group-4" fill="#3D88B5">
            <path d="M5.95543194,4.96967067 L9.80264788,1.12245472 C10.0699755,0.855127147 10.0631543,0.4482874 9.80801607,0.193149131 C9.55109902,-0.0637679162 9.13681351,-0.0595857205 8.87871048,0.198517316 L5.0005826,4.07664519 L1.12245472,0.198517316 C0.855127147,-0.0688102598 0.4482874,-0.061989139 0.193149131,0.193149131 C-0.0637679162,0.450066177 -0.0595857205,0.864351686 0.198517316,1.12245472 L4.04456806,4.96850547 L0.197352116,8.81572142 C-0.0699754597,9.083049 -0.063154339,9.48988874 0.191983931,9.74502701 C0.448900978,10.0019441 0.863186486,9.99776186 1.12128952,9.73965883 L4.9994174,5.86153095 L8.87754528,9.73965883 C9.14487285,10.0069864 9.5517126,10.0001653 9.80685087,9.74502701 C10.0637679,9.48810996 10.0595857,9.07382446 9.80148268,8.81572142 L5.95543194,4.96967067 Z" id="Combined-Shape"></path>
        </g>
    </g>
</svg>