<svg id="Layer_1" data-name="Layer 1" xmlns="http://www.w3.org/2000/svg" viewBox="0 0 23 23"><defs><style>.cls-1{fill:#010101;}</style></defs><title>Chart Type Icons - Map</title><g id="Map"><path class="cls-1" d="M128.71,154.72a11.5,11.5,0,1,1,11.5-11.5A11.51,11.51,0,0,1,128.71,154.72Zm0-21.48a10,10,0,1,0,10,10A10,10,0,0,0,128.71,133.24Z" transform="translate(-117.21 -131.72)"/><path d="M125,133.14h0.13l-0.25.13a0.25,0.25,0,0,0,.21.09,2.12,2.12,0,0,1,.73-0.18,0.75,0.75,0,0,0,.09-0.24l-0.16,0-0.31.08,0,0-0.18,0Z" transform="translate(-117.21 -131.72)"/><path d="M129.39,132.6l-0.41-.1h-0.27c-0.21,0-.42,0-0.62,0l-0.13.18A1.9,1.9,0,0,0,129.39,132.6Z" transform="translate(-117.21 -131.72)"/><path d="M131.69,133.38a1.47,1.47,0,0,1,.3,0,1.45,1.45,0,0,1,.27.13,1.18,1.18,0,0,0-.4.06,0.34,0.34,0,0,0,0,.25,2.5,2.5,0,0,0,.43.09l-0.11.15a1.1,1.1,0,0,0-.22.34,0.64,0.64,0,0,0,.07.4c0.14,0.26.33,0.5,0.48,0.76a0.77,0.77,0,0,0,.78.42l0.53,0.13,0.08-.6c0-.09,0-0.19,0-0.28a1.28,1.28,0,0,0,.06-0.28,0.42,0.42,0,0,1,.25-0.45,1.3,1.3,0,0,0,.37-0.27,10.68,10.68,0,0,0-2.82-1.3A0.79,0.79,0,0,1,131.69,133.38Z" transform="translate(-117.21 -131.72)"/><path d="M130.47,153.5a0.23,0.23,0,0,1,0-.22c0.12-.18.27-0.34,0.39-0.49l-0.22-.11a0.78,0.78,0,0,0,.38-0.28,0.22,0.22,0,0,1,.24-0.2,0.38,0.38,0,0,0,.42-0.3,1,1,0,0,0-.08-0.37,0.45,0.45,0,0,0,.64-0.32,0.91,0.91,0,0,1,.09-0.17,1.1,1.1,0,0,0,.35-0.78,0.29,0.29,0,0,1,.11-0.22c0.17-.11.37-0.18,0.54-0.28a0.5,0.5,0,0,0,.25-0.2c0.1-.33.16-0.66,0.24-1a0.7,0.7,0,0,1,0-.21,3.61,3.61,0,0,1,.3-0.4,0.45,0.45,0,0,0-.14-0.77s-0.08-.08-0.13-0.1l-0.37-.15-0.5-.17a0.65,0.65,0,0,0-.79,0,1.12,1.12,0,0,0,.19-0.38,0.72,0.72,0,0,0-.68-0.63,1,1,0,0,1-.72-0.6,1.36,1.36,0,0,1-1.06-.2l-0.17.14a0.38,0.38,0,0,0-.48-0.35,0.33,0.33,0,0,1-.44-0.29,1.13,1.13,0,0,1,0-.26,0.26,0.26,0,0,0-.32-0.34h-0.28l0.15-.73a0.3,0.3,0,0,0-.46.15,0.27,0.27,0,0,1-.3.22,0.59,0.59,0,0,1-.35-0.14,1,1,0,0,1-.14-0.91,0.55,0.55,0,0,1,.71-0.5,0.35,0.35,0,0,0,.26-0.06,0.61,0.61,0,0,1,.81.26,2.36,2.36,0,0,0,.22.42l0.1,0a1.23,1.23,0,0,0,0-.28,1.18,1.18,0,0,0-.11-0.32,0.36,0.36,0,0,1,.11-0.49,3.16,3.16,0,0,0,.37-0.34,0.83,0.83,0,0,0,.13-0.27,3.46,3.46,0,0,0,.18-0.53,0.44,0.44,0,0,1,.44-0.3l0,0c-0.05-.29.07-0.42,0.52-0.55v0.26l0.77-.43-0.14-.25c-0.06.24-.18,0.3-0.35,0.21s-0.11-.31-0.08-0.55l-0.55.1a1,1,0,0,1,.35-0.23,2,2,0,0,0,1.05-.22l-0.23.61,0.79,0.15-0.12-.43c-0.28,0-.28,0-0.25-0.31a0.21,0.21,0,0,0-.08-0.08,0.26,0.26,0,0,0-.08-0.42,2.36,2.36,0,0,1-.37-0.28,0.84,0.84,0,0,1-.2-0.23c-0.11-.2-0.19-0.41-0.29-0.61s-0.16-.11-0.2,0c-0.09.27-.26,0.26-0.46,0.16l0-.36a1.79,1.79,0,0,1-.31-0.22,1.09,1.09,0,0,0-.68-0.14,0.35,0.35,0,0,0-.07.15c0,0.19,0,.39,0,0.58a0.29,0.29,0,0,0,.07.16,0.32,0.32,0,0,1-.05.55l-0.16.12c0.15,0.43.14,0.49,0,.59a0.52,0.52,0,0,1-.28-0.5,0.2,0.2,0,0,0-.16-0.22,4,4,0,0,1-.64-0.25,0.9,0.9,0,0,1-.58-0.35c-0.13-.25-0.22-0.32,0-0.55a1.5,1.5,0,0,1,.64-0.61,0.44,0.44,0,0,0,.14-0.18l0.15-.25h0v-0.11a0.41,0.41,0,0,0,.51-0.12,0.76,0.76,0,0,0,0-.37c0.13,0,.15-0.11,0-0.2l-0.23-.12,0.43,0a0.49,0.49,0,0,1,.53.15l-0.06.13a0.29,0.29,0,0,1,.11,0,1.38,1.38,0,0,1,.36.24,0.69,0.69,0,0,1-.1.28c0,0.07,0,.14-0.07.23l-0.2,0a1.11,1.11,0,0,0-.22.09,0.14,0.14,0,0,0,0,.1,0.43,0.43,0,0,0,.24,0,0.4,0.4,0,0,1,.51.18,1.16,1.16,0,0,0,.67.33l0-.05-0.26-.27,0,0L131,136.1a0.33,0.33,0,0,0-.13-0.5,0.24,0.24,0,0,1-.11-0.35l0.39,0.31,0.34-.38-0.9-.47,0.18-.12a0.73,0.73,0,0,0-.13-0.24c-0.11-.09-0.25-0.13-0.36-0.22a2.07,2.07,0,0,1-.6-0.35,0.4,0.4,0,0,0-.3,0,1.73,1.73,0,0,0-.33.14c0.06-.22,0-0.39-0.18-0.42a0.45,0.45,0,0,0-.33.14,0.86,0.86,0,0,0-.12.32h-0.07l0.07-.44c-0.34,0-.5.15-0.48,0.6l0.21,0.09c-0.19.12-.08,0.17,0,0.2l0.49,0.12c-0.1,0-.2,0-0.19.14a0.55,0.55,0,0,1-.24.48l-0.15-.51-0.16.17-0.23-.27a1.63,1.63,0,0,0-.16-0.34,0.94,0.94,0,0,0-.26-0.17,1.05,1.05,0,0,0-.17.31c0,0.29.23,0.24,0.38,0.32l-0.24.38-0.31-.14,0,0L127,135l-0.87-.12a0.29,0.29,0,0,0-.39.27c-0.22-.35-0.58,0-0.85-0.18,0.11-.18,0-0.2-0.14-0.23s-0.39-.11-0.58-0.14-0.46,0-.68-0.06v0.05l-0.17-.2-0.67.4,0,0,0.39-.26,0-.06a2.24,2.24,0,0,0-.66.22,0.3,0.3,0,0,1-.21.07,10.78,10.78,0,0,0-2.5,2.77,2,2,0,0,0,.75-0.82V137l0.54-.39,0.44,0.15L122,137a3.33,3.33,0,0,1,.36.11,0.57,0.57,0,0,1,.25.16c0.17,0.23.31,0.47,0.46,0.71l0.05,0.05a0.42,0.42,0,0,1,.19.6,0.82,0.82,0,0,1,.5.93,1.83,1.83,0,0,0,.34,1.43,2,2,0,0,0,.36.33,0.61,0.61,0,0,1,.15.11,3,3,0,0,1,.35.7,3.21,3.21,0,0,0,.46.67,0.56,0.56,0,0,0,.16.14,3.37,3.37,0,0,0-.29-0.63,1,1,0,0,1-.29-0.61,0.32,0.32,0,0,1,.14.11c0.12,0.17.23,0.35,0.35,0.51s0.3,0.33.44,0.51a0.61,0.61,0,0,1,.16.34,0.49,0.49,0,0,0,.34.45,14.18,14.18,0,0,1,1.5.56,1.8,1.8,0,0,0,.22.08,0.83,0.83,0,0,1,.31.25,1.32,1.32,0,0,0,.75.55l0-.06,0.12-.12a0.18,0.18,0,0,1,.07.07,0.47,0.47,0,0,1-.09.15c-0.14.17-.29,0.33-0.42,0.5a0.18,0.18,0,0,0,0,.14,0.75,0.75,0,0,1-.22.78,0.4,0.4,0,0,0-.07.59,0.28,0.28,0,0,0-.06.44c0.12,0.2.25,0.39,0.36,0.6a1.53,1.53,0,0,0,.71.87,0.41,0.41,0,0,1,.23.44c0,0.48-.09,1-0.14,1.44,0,0.28-.08.57-0.11,0.85s-0.08.59-.12,0.89c0,0.11,0,.22,0,0.34h0l0.11-.21a0.69,0.69,0,0,1-.24.7c0,0.12.07,0.23,0.09,0.34l0,0.15c0.31,0,.62-0.06.93-0.12C130.58,153.69,130.64,153.62,130.47,153.5Z" transform="translate(-117.21 -131.72)"/><path d="M138.8,139.56a1.61,1.61,0,0,0-.28,0c-0.23,0-.46.14-0.69,0.2a3.6,3.6,0,0,1-.42.05l0-.1a0.92,0.92,0,0,1,.19-0.09,0.49,0.49,0,0,0,.42-0.45,0.82,0.82,0,0,1,.17-0.28,2.65,2.65,0,0,1,.23-0.28l0,0a10.71,10.71,0,0,0-.62-1.13,2.06,2.06,0,0,1-.33.13,0.31,0.31,0,0,0-.07.08l0.17,0.11a0.47,0.47,0,0,1,.22.58c-0.09.21-.27,0.1-0.42,0.11l-0.54,0a4.21,4.21,0,0,0,.13,1,0.48,0.48,0,0,1,.27.16,0.75,0.75,0,0,1-.15.35,1.13,1.13,0,0,0-.19.17,1.49,1.49,0,0,1-.5.85,2.38,2.38,0,0,0-.36.62,0.43,0.43,0,0,0,0,.38,1,1,0,0,1,0,.54,0.63,0.63,0,0,0,.18.72c0.11,0.09.17,0.23,0.27,0.33a4,4,0,0,0,.58.52,0.75,0.75,0,0,0,.38,0,0.51,0.51,0,0,1,.17,0,0.89,0.89,0,0,0,.6-0.11,0.68,0.68,0,0,1,.28-0.07,0.32,0.32,0,0,1,.24.1,0.27,0.27,0,0,0,.32.15,0.21,0.21,0,0,1,.25.24,0.7,0.7,0,0,1,0,.29,0.38,0.38,0,0,0,0,.37A10.49,10.49,0,0,0,138.8,139.56Z" transform="translate(-117.21 -131.72)"/><path d="M128.76,135.87l0.35,0.06,0-.08-0.7-.46-0.1.49A0.27,0.27,0,0,0,128.76,135.87Z" transform="translate(-117.21 -131.72)"/><path d="M123.53,134l0.19,0.12a0.3,0.3,0,0,0,.47-0.08,1.81,1.81,0,0,1,.3-0.3,1.56,1.56,0,0,1,.26-0.14v-0.07l-0.37-.12c-0.26.12-.53,0.24-0.78,0.38Z" transform="translate(-117.21 -131.72)"/><path d="M126.76,134.75l0.45,0.08,0.09-.14-0.31-.24Z" transform="translate(-117.21 -131.72)"/><path d="M126.54,134.44a0.89,0.89,0,0,1-.52-0.65,0.25,0.25,0,0,0-.36-0.11l0,0.27c-0.11-.15-0.2-0.32-0.37-0.09-0.47-.25-0.83-0.2-1,0.19l0.18,0.12-0.18.16,0.73,0v0l-0.54.07v0.11a1,1,0,0,1,.39.15,0.49,0.49,0,0,0,.62.07,0.73,0.73,0,0,1,.6,0,0.31,0.31,0,0,0,.21,0c0.1,0,.13-0.1,0-0.16a0.09,0.09,0,0,1,0,0h0.21A0.28,0.28,0,0,0,126.54,134.44Z" transform="translate(-117.21 -131.72)"/><path d="M128.36,133.26a1.28,1.28,0,0,1,.39,0,0.28,0.28,0,0,0,.4-0.22,0.7,0.7,0,0,0-.71-0.1,0.44,0.44,0,0,1-.56-0.08c-0.12-.23-0.23-0.14-0.39-0.1a0.73,0.73,0,0,1,.1.25c0,0.23.14,0.25,0.29,0.27A3.37,3.37,0,0,0,128.36,133.26Z" transform="translate(-117.21 -131.72)"/><path d="M126.76,133.16c0.18,0,.19-0.15.21-0.26a0.21,0.21,0,0,0-.12-0.16,0.85,0.85,0,0,0-.37,0,0.53,0.53,0,0,0-.13.22h0.24v0.07A0.47,0.47,0,0,0,126.76,133.16Z" transform="translate(-117.21 -131.72)"/><path d="M127.23,133.55a0.4,0.4,0,0,0,.06.32c0.09,0.12.15,0,.21-0.08a0.11,0.11,0,0,1,.07,0,0.35,0.35,0,0,0,.28-0.33,1.41,1.41,0,0,0-.36,0A0.35,0.35,0,0,0,127.23,133.55Z" transform="translate(-117.21 -131.72)"/><path d="M127.07,133.46l-0.49,0,0,0.24-0.25,0,0,0.07,0.53,0.35,0,0a0.57,0.57,0,0,0,.19-0.21,0.64,0.64,0,0,0-.12-0.28Z" transform="translate(-117.21 -131.72)"/></g></svg>