<?xml version="1.0" encoding="UTF-8" standalone="no"?>
<svg width="20px" height="20px" viewBox="0 0 20 20" version="1.1" xmlns="http://www.w3.org/2000/svg" xmlns:xlink="http://www.w3.org/1999/xlink">
    <!-- Generator: Sketch 39 (31667) - http://www.bohemiancoding.com/sketch -->
    <title>Combined Shape</title>
    <desc>Created with Sketch.</desc>
    <defs></defs>
    <g id="Page-1" stroke="none" stroke-width="1" fill="none" fill-rule="evenodd">
        <path d="M8.46936366,10.6664182 L8.46936366,0 L11.3243222,0 L11.3243222,10.5298354 L14.2893529,7.56480473 L15.7876162,7.5806119 L17.3014411,7.58085737 L9.96527789,14.9170206 L9.84685129,15.0354472 L9.83860997,15.0272059 L9.82031022,15.0455056 C9.82031022,15.0455056 9.75103851,14.9762339 9.69182521,14.9170206 L2.35566199,7.58085737 L3.86948694,7.5806119 L5.36775019,7.56480473 L8.46936366,10.6664182 Z M18.4617186,17.4866212 L1.68883708,17.4866212 L1.68883708,12.8473135 L0.618227617,12.8473135 L0.618227617,18.3787957 L0.618227617,19.9847099 L19.5323281,19.9847099 L19.5323281,18.3787957 L19.5323281,12.8473135 L18.4617186,12.8473135 L18.4617186,17.4866212 Z" id="Combined-Shape" fill="#57A0BA"></path>
    </g>
</svg>