<svg id="Layer_1" data-name="Layer 1" xmlns="http://www.w3.org/2000/svg" viewBox="0 0 21.5 25.83"><defs><style>.cls-1{fill:#c33;}.cls-2{fill:#e6e6e6;}.cls-3{fill:#fff;}</style></defs><title>File Format Icons - PDF - Var2.svg</title><g id="PDF_-_VAR_2" data-name="PDF - VAR 2"><polygon class="cls-1" points="21.5 25.83 0 25.83 0 0 15.17 0 18.33 3.17 21.5 6.33 21.5 25.83"/><polygon class="cls-2" points="15.17 0 15.17 6.34 21.5 6.34 15.17 0"/><path class="cls-3" d="M199.62,263.44H202a2,2,0,0,1,.85.17,1.87,1.87,0,0,1,.62.44,1.94,1.94,0,0,1,.38.61,1.83,1.83,0,0,1,.13.67,1.93,1.93,0,0,1-.13.7,1.77,1.77,0,0,1-.38.6,1.88,1.88,0,0,1-.62.42,2.12,2.12,0,0,1-.84.16h-1.37v2.5h-1v-6.26Zm1,2.78H202a0.89,0.89,0,0,0,.36-0.07,1,1,0,0,0,.29-0.19,1,1,0,0,0,.2-0.29,0.85,0.85,0,0,0,.08-0.36,0.83,0.83,0,0,0-.26-0.63,0.93,0.93,0,0,0-.67-0.25h-1.37v1.79Z" transform="translate(-196.51 -251.51)"/><path class="cls-3" d="M204.83,263.44h2.38a2.52,2.52,0,0,1,1.13.25,2.58,2.58,0,0,1,.86.67,3.07,3.07,0,0,1,.54,1,3.82,3.82,0,0,1,.19,1.21,3.75,3.75,0,0,1-.2,1.24,3.09,3.09,0,0,1-.56,1,2.58,2.58,0,0,1-.86.66,2.52,2.52,0,0,1-1.1.24h-2.38v-6.26Zm1,5.28h1.08a2,2,0,0,0,.77-0.14,1.72,1.72,0,0,0,.61-0.42,2,2,0,0,0,.4-0.67,2.63,2.63,0,0,0,.14-0.9,2.86,2.86,0,0,0-.14-1,1.81,1.81,0,0,0-.4-0.67,1.61,1.61,0,0,0-.61-0.39,2.26,2.26,0,0,0-.77-0.13h-1.08v4.28Z" transform="translate(-196.51 -251.51)"/><path class="cls-3" d="M214.9,263.44v1h-3.18V266h2.76v1h-2.76v2.73h-1v-6.26h4.23Z" transform="translate(-196.51 -251.51)"/></g></svg>