<svg id="Layer_1" data-name="Layer 1" xmlns="http://www.w3.org/2000/svg" viewBox="0 0 23.36 24.62"><defs><style>.cls-1,.cls-2{fill:none;stroke-miterlimit:10;}.cls-1{stroke:#919191;}.cls-2{stroke:#fff;}.cls-3{fill:#fff;}.cls-4{fill:#828282;}.cls-5{fill:#b2b2b2;}.cls-6{fill:#466370;}.cls-7{fill:#4d4e51;}</style></defs><title>File Format Icons - Print - Var2.svg</title><g id="Print"><line class="cls-1" x1="19.64" y1="11.9" x2="19.33" y2="11.43"/><polyline class="cls-2" points="22.39 0.41 11.88 7.93 11.88 7.93 1.36 0.41"/><polygon class="cls-3" points="3.63 4.99 19.73 4.99 19.73 24.34 8.37 24.34 6 21.96 3.63 19.59 3.63 4.99"/><path class="cls-4" d="M288.06,256.62h16.67v19.92H293l-4.91-4.91v-15Zm16.1,0.57H288.63v14.2l4.58,4.58h11V257.19Z" transform="translate(-284.72 -251.91)"/><polygon class="cls-5" points="8.15 24.5 8.15 19.76 3.4 19.76 8.15 24.5"/><rect class="cls-6" x="294.99" y="272.37" width="7.35" height="0.92" transform="translate(312.62 293.74) rotate(-180)"/><rect class="cls-6" x="293.62" y="270.28" width="8.72" height="0.92" transform="translate(311.25 289.57) rotate(-180)"/><rect class="cls-6" x="296.3" y="268.34" width="6.04" height="0.92" transform="translate(313.93 285.67) rotate(-180)"/><polygon class="cls-7" points="3.34 13.06 3.34 8.36 20.02 8.36 20.02 13.06 23.36 13.06 23.36 2.06 0 2.06 0 13.06 3.34 13.06"/></g></svg>