<?xml version="1.0" encoding="UTF-8" standalone="no"?>
<svg width="22px" height="22px" viewBox="0 0 22 22" version="1.1" xmlns="http://www.w3.org/2000/svg" xmlns:xlink="http://www.w3.org/1999/xlink">
    <!-- Generator: Sketch 39 (31667) - http://www.bohemiancoding.com/sketch -->
    <title>Group 5</title>
    <desc>Created with Sketch.</desc>
    <defs></defs>
    <g id="Page-1" stroke="none" stroke-width="1" fill="none" fill-rule="evenodd">
        <g id="Group-5">
            <rect id="Rectangle-2" fill="#39AAD3" x="0" y="0" width="22" height="22" rx="3"></rect>
            <path d="M5.39163484,8.35041162 C5.60428197,8.22720334 5.84611803,8.10322142 6.11098271,7.98743684 C7.22778231,7.49923215 8.35878537,7.31683039 9.37558948,7.59688651 C9.85576499,7.72914019 10.3040705,7.96394881 10.7203174,8.31578066 C11.0954784,8.63288475 11.4907339,8.88903799 11.9033454,9.08617163 C13.4599019,9.82984872 15.0976408,9.69990513 16.6392802,9.05037907 C16.9144064,8.93446246 17.1641547,8.81001548 17.3850792,8.68466488 C17.5221091,8.60691528 17.622457,8.54371885 17.6824559,8.50253734 C18.0154666,8.2739683 18.1001333,7.81871797 17.8715642,7.48570727 C17.6429952,7.15269656 17.1877449,7.06802987 16.8547342,7.2965989 C16.8278904,7.3150237 16.7626057,7.3561383 16.6632657,7.41250291 C16.4902404,7.51067595 16.2914069,7.60975264 16.071372,7.7024581 C14.8794334,8.20464761 13.654596,8.30183024 12.5338969,7.76639305 C12.2346526,7.6234229 11.9447103,7.43552002 11.6645295,7.19869773 C11.0853639,6.70915919 10.4471651,6.3748903 9.76398738,6.18672418 C8.37117866,5.80310594 6.92113022,6.03696153 5.52511407,6.64722466 C5.20727013,6.78616893 4.91674785,6.93511078 4.65835151,7.08482627 C4.49938895,7.17692957 4.38332013,7.25107388 4.31524468,7.29818192 C3.98310825,7.52801954 3.90017868,7.98358951 4.1300163,8.31572593 C4.35985391,8.64786236 4.81542388,8.73079193 5.14756031,8.50095432 C5.18465815,8.47528269 5.26797132,8.42206257 5.39163484,8.35041162 Z" id="Path-2" fill="#FFFFFF"></path>
            <path d="M5.39163484,11.3504116 C5.60428197,11.2272033 5.84611803,11.1032214 6.11098271,10.9874368 C7.22778231,10.4992322 8.35878537,10.3168304 9.37558948,10.5968865 C9.85576499,10.7291402 10.3040705,10.9639488 10.7203174,11.3157807 C11.0954784,11.6328847 11.4907339,11.889038 11.9033454,12.0861716 C13.4599019,12.8298487 15.0976408,12.6999051 16.6392802,12.0503791 C16.9144064,11.9344625 17.1641547,11.8100155 17.3850792,11.6846649 C17.5221091,11.6069153 17.622457,11.5437188 17.6824559,11.5025373 C18.0154666,11.2739683 18.1001333,10.818718 17.8715642,10.4857073 C17.6429952,10.1526966 17.1877449,10.0680299 16.8547342,10.2965989 C16.8278904,10.3150237 16.7626057,10.3561383 16.6632657,10.4125029 C16.4902404,10.510676 16.2914069,10.6097526 16.071372,10.7024581 C14.8794334,11.2046476 13.654596,11.3018302 12.5338969,10.766393 C12.2346526,10.6234229 11.9447103,10.43552 11.6645295,10.1986977 C11.0853639,9.70915919 10.4471651,9.3748903 9.76398738,9.18672418 C8.37117866,8.80310594 6.92113022,9.03696153 5.52511407,9.64722466 C5.20727013,9.78616893 4.91674785,9.93511078 4.65835151,10.0848263 C4.49938895,10.1769296 4.38332013,10.2510739 4.31524468,10.2981819 C3.98310825,10.5280195 3.90017868,10.9835895 4.1300163,11.3157259 C4.35985391,11.6478624 4.81542388,11.7307919 5.14756031,11.5009543 C5.18465815,11.4752827 5.26797132,11.4220626 5.39163484,11.3504116 Z" id="Path-2" fill="#FFFFFF"></path>
            <path d="M5.39163484,14.3504116 C5.60428197,14.2272033 5.84611803,14.1032214 6.11098271,13.9874368 C7.22778231,13.4992322 8.35878537,13.3168304 9.37558948,13.5968865 C9.85576499,13.7291402 10.3040705,13.9639488 10.7203174,14.3157807 C11.0954784,14.6328847 11.4907339,14.889038 11.9033454,15.0861716 C13.4599019,15.8298487 15.0976408,15.6999051 16.6392802,15.0503791 C16.9144064,14.9344625 17.1641547,14.8100155 17.3850792,14.6846649 C17.5221091,14.6069153 17.622457,14.5437188 17.6824559,14.5025373 C18.0154666,14.2739683 18.1001333,13.818718 17.8715642,13.4857073 C17.6429952,13.1526966 17.1877449,13.0680299 16.8547342,13.2965989 C16.8278904,13.3150237 16.7626057,13.3561383 16.6632657,13.4125029 C16.4902404,13.510676 16.2914069,13.6097526 16.071372,13.7024581 C14.8794334,14.2046476 13.654596,14.3018302 12.5338969,13.766393 C12.2346526,13.6234229 11.9447103,13.43552 11.6645295,13.1986977 C11.0853639,12.7091592 10.4471651,12.3748903 9.76398738,12.1867242 C8.37117866,11.8031059 6.92113022,12.0369615 5.52511407,12.6472247 C5.20727013,12.7861689 4.91674785,12.9351108 4.65835151,13.0848263 C4.49938895,13.1769296 4.38332013,13.2510739 4.31524468,13.2981819 C3.98310825,13.5280195 3.90017868,13.9835895 4.1300163,14.3157259 C4.35985391,14.6478624 4.81542388,14.7307919 5.14756031,14.5009543 C5.18465815,14.4752827 5.26797132,14.4220626 5.39163484,14.3504116 Z" id="Path-2" fill="#FFFFFF"></path>
        </g>
    </g>
</svg>