<?xml version="1.0" encoding="UTF-8" standalone="no"?>
<svg width="18px" height="18px" viewBox="0 0 18 18" version="1.1" xmlns="http://www.w3.org/2000/svg" xmlns:xlink="http://www.w3.org/1999/xlink">
    <!-- Generator: Sketch 39 (31667) - http://www.bohemiancoding.com/sketch -->
    <title>Combined Shape</title>
    <desc>Created with Sketch.</desc>
    <defs></defs>
    <g id="Page-1" stroke="none" stroke-width="1" fill="none" fill-rule="evenodd">
        <path d="M16.2580645,1.84486278 L16.2580645,0.578505546 C16.2580645,0.254453659 15.9981008,0 15.6774194,0 C15.3661164,0 15.0967742,0.259005755 15.0967742,0.578505546 L15.0967742,1.84486278 C14.0950294,2.10692082 13.3548387,3.03117673 13.3548387,4.13114754 C13.3548387,5.23111835 14.0950294,6.15537426 15.0967742,6.4174323 L15.0967742,17.4214945 C15.0967742,17.7455463 15.3567379,18 15.6774194,18 C15.9887223,18 16.2580645,17.7409942 16.2580645,17.4214945 L16.2580645,6.4174323 C17.2598093,6.15537426 18,5.23111835 18,4.13114754 C18,3.03117673 17.2598093,2.10692082 16.2580645,1.84486278 Z M9.58064516,7.74650212 L9.58064516,0.578505546 C9.58064516,0.254453659 9.32068147,0 9,0 C8.68869708,0 8.41935484,0.259005755 8.41935484,0.578505546 L8.41935484,7.74650212 C7.41761001,8.00856016 6.67741935,8.93281607 6.67741935,10.0327869 C6.67741935,11.1327577 7.41761001,12.0570136 8.41935484,12.3190716 L8.41935484,17.4214945 C8.41935484,17.7455463 8.67931853,18 9,18 C9.31130292,18 9.58064516,17.7409942 9.58064516,17.4214945 L9.58064516,12.3190716 C10.58239,12.0570136 11.3225806,11.1327577 11.3225806,10.0327869 C11.3225806,8.93281607 10.58239,8.00856016 9.58064516,7.74650212 Z M2.90322581,4.79568245 L2.90322581,0.578505546 C2.90322581,0.254453659 2.64326211,0 2.32258065,0 C2.01127772,0 1.74193548,0.259005755 1.74193548,0.578505546 L1.74193548,4.79568245 C0.740190651,5.05774049 0,5.9819964 0,7.08196721 C0,8.18193802 0.740190651,9.10619393 1.74193548,9.36825198 L1.74193548,17.4214945 C1.74193548,17.7455463 2.00189918,18 2.32258065,18 C2.63388357,18 2.90322581,17.7409942 2.90322581,17.4214945 L2.90322581,9.36825198 C3.90497064,9.10619393 4.64516129,8.18193802 4.64516129,7.08196721 C4.64516129,5.9819964 3.90497064,5.05774049 2.90322581,4.79568245 Z" id="Combined-Shape" fill="#57A0BA"></path>
    </g>
</svg>