<svg xmlns="http://www.w3.org/2000/svg" viewBox="0 0 634.72 480.72"><defs><style>.cls-1{fill:#393;}.cls-1,.cls-2{fill-rule:evenodd;}.cls-2{fill:#7cd17c;}.cls-3{fill:#fff;}.cls-4{font-size:45px;fill:#969696;font-family:PingFangSC-Light-GBpc-EUC-H, PingFang SC;letter-spacing:0.09em;}</style></defs><title>Asset 3</title><g id="Layer_2" data-name="Layer 2"><g id="方案A"><path class="cls-1" d="M411.28,243.32,387,170.51l-50.79,35.86,64.33,44.51C406,254.67,413.34,249.52,411.28,243.32Z"/><path class="cls-2" d="M310.73,4.64l-24.8,72.63h62.88L324,4.64C321.89-1.55,312.85-1.55,310.73,4.64Z"/><path class="cls-1" d="M447.86,102.49,289,153.71a3.34,3.34,0,0,0-.94.48,27.78,27.78,0,0,1,.54,5.43c0,15.62-13.1,28.29-29.26,28.29a30.82,30.82,0,0,1-5.3-.47,3.56,3.56,0,0,0-.28.59l-18.48,54.12c-2.38,7,5.87,12.78,12,8.46l197.92-139.4A7.27,7.27,0,0,0,447.86,102.49Z"/><path class="cls-2" d="M259.29,131.32a29.35,29.35,0,0,1,26.39,16.07,3.39,3.39,0,0,0,1.37-.15L446.18,96.56a7.65,7.65,0,0,0-7.39-5.11H194.18c-7.55,0-10.7,9.33-4.61,13.63l49,34.61A29.66,29.66,0,0,1,259.29,131.32Z"/><g id="TEXT"><path class="cls-3" d="M436.35,335l-26.84,70.17H419l6.49-17.94.94-.66h30.82l.94.66,6.49,17.94h9.59L447.43,335Zm17.59,44.48h-24.2l-.94-1.35,11.95-32.64.94-.66h.4l.94.66,11.85,32.65Z"/><polygon class="cls-3" points="380.55 405.19 380.55 343.42 381.55 342.42 404.44 342.42 404.44 335.02 347.71 335.02 347.71 342.42 370.71 342.42 371.71 343.42 371.71 405.19 380.55 405.19"/><polygon class="cls-3" points="530.76 335.02 510.71 394.18 509.76 394.86 509.46 394.86 508.51 394.18 488.36 335.02 478.65 335.02 503.64 405.19 515.48 405.19 540.47 335.02 530.76 335.02"/><rect class="cls-3" x="551.63" y="335.02" width="8.84" height="70.17"/><path class="cls-3" d="M583,401.54c4.82,3.36,11.51,5.07,19.9,5.07,8.78,0,15.67-1.77,20.5-5.27a16.92,16.92,0,0,0,7.11-14.45c0-6.3-2.86-11.12-8.75-14.72-2.62-1.59-8.51-3.81-18.56-7-6.46-1.94-10.83-3.51-12.64-4.53-3.86-2.05-5.83-4.93-5.83-8.55a9.2,9.2,0,0,1,5.16-8.78c2.62-1.47,6.43-2.23,11.31-2.23,5.67,0,9.87,1.09,12.84,3.33,2.78,2,4.69,5.25,5.82,9.91h8.94c-.83-7.08-3.46-12.19-8-15.58s-10.71-5.16-19-5.16c-7.39,0-13.59,1.67-18.41,5a16.07,16.07,0,0,0-7.5,14.13c0,6,2.54,10.45,7.75,13.6,2,1.09,7,2.91,16.25,5.87,7.85,2.4,12.7,4.05,14.4,4.91,4.9,2.52,7.38,6,7.38,10.39,0,3.61-1.79,6.45-5.33,8.45s-8,3-13.44,3c-6.27,0-10.84-1.15-14-3.54s-5.34-6.48-6.27-12h-8.91C574.55,391.67,577.58,397.63,583,401.54Z"/><path class="cls-3" d="M72.8,383.34c.76,8.33,3.79,14.29,9.24,18.2,4.81,3.36,11.51,5.07,19.9,5.07,8.78,0,15.67-1.77,20.49-5.27a16.9,16.9,0,0,0,7.12-14.45c0-6.3-2.86-11.12-8.76-14.72-2.61-1.59-8.51-3.81-18.55-7-6.46-1.94-10.84-3.51-12.64-4.53-3.86-2.05-5.83-4.93-5.83-8.55a9.2,9.2,0,0,1,5.16-8.78c2.62-1.47,6.43-2.23,11.3-2.23,5.68,0,9.88,1.09,12.85,3.33,2.78,2,4.69,5.25,5.82,9.91h8.94c-.83-7.08-3.46-12.19-8-15.58s-10.71-5.16-19-5.16c-7.39,0-13.59,1.67-18.41,5a16.07,16.07,0,0,0-7.5,14.13c0,6,2.53,10.45,7.75,13.6,2,1.09,7,2.91,16.25,5.87,7.85,2.4,12.7,4.05,14.4,4.91,4.9,2.52,7.38,6,7.38,10.39,0,3.61-1.79,6.45-5.33,8.45s-8,3-13.44,3c-6.27,0-10.84-1.15-14-3.54s-5.35-6.48-6.27-12Z"/><path class="cls-3" d="M262.24,344.5C256.39,338.12,248,335,236.67,335h-25.1v70.17h24.9c11.17,0,19.78-3.15,25.57-9.38,5.55-6.08,8.37-14.73,8.37-25.7,0-11.14-2.75-19.76-8.17-25.6Zm-7.07,46.41c-4.43,4.57-11.4,6.88-20.71,6.88h-13l-1-1V343.42l1-1h13.16c9.3,0,16.23,2.28,20.59,6.78s6.41,11.53,6.41,20.91S259.48,386.36,255.17,390.91Z"/><polygon class="cls-3" points="12.89 350.91 13.71 351.35 50.46 405.19 59.57 405.19 59.57 335.02 50.63 335.02 50.63 387.7 49.63 388.7 49.23 388.7 48.4 388.26 12.06 335.02 2.54 335.02 2.54 405.19 11.49 405.19 11.49 351.91 12.49 350.91 12.89 350.91"/><circle class="cls-3" cx="169.44" cy="372.55" r="9"/><path class="cls-3" d="M304.83,335,278,405.19h9.49L294,387.25l.94-.66h30.82l.94.66,6.49,17.94h9.59L315.9,335Zm17.58,44.48H298.22l-.94-1.35,12-32.64.94-.66h.4l.94.66,11.84,32.65Z"/><text class="cls-4" transform="translate(0 470.28)">绿盟数据可视化自助构建平台</text></g></g></g></svg>